<svg aria-hidden="true" style="position: absolute; width: 0; height: 0; overflow: hidden;" version="1.1" xmlns="http://www.w3.org/2000/svg" xmlns:xlink="http://www.w3.org/1999/xlink">
    <defs>
        <symbol id="icon-Arrow" viewBox="0 0 32 32">
        <path d="M21.333 27.667c-0.265 0.001-0.52-0.105-0.707-0.293l-10.667-10.667c-0.39-0.39-0.39-1.023 0-1.413l10.667-10.667c0.394-0.367 1.008-0.356 1.389 0.024s0.392 0.995 0.024 1.389l-9.96 9.96 9.96 9.96c0.39 0.39 0.39 1.023 0 1.413-0.186 0.189-0.441 0.295-0.707 0.293z"></path>
        </symbol>

        <symbol id="icon-No-Edit" viewBox="0 0 32 32">
        <path stroke-linejoin="miter" stroke-linecap="round" stroke-miterlimit="4" stroke-width="1.6" d="M21.333 16h-10.667"></path>
        </symbol>

        <symbol id="icon-Number-of-Cores" viewBox="0 0 32 32">
        <path stroke-linejoin="miter" stroke-linecap="butt" stroke-miterlimit="4" stroke-width="1.3333" d="M9.333 14.667c0-2.514 0-3.771 0.781-4.552s2.038-0.781 4.552-0.781h2.667c2.514 0 3.771 0 4.552 0.781s0.781 2.038 0.781 4.552v2.667c0 2.514 0 3.771-0.781 4.552s-2.038 0.781-4.552 0.781h-2.667c-2.514 0-3.771 0-4.552-0.781s-0.781-2.038-0.781-4.552v-2.667z"></path>
        <path d="M17.333 13.333h-2.667c-0.736 0-1.333 0.597-1.333 1.333v2.667c0 0.736 0.597 1.333 1.333 1.333h2.667c0.736 0 1.333-0.597 1.333-1.333v-2.667c0-0.736-0.597-1.333-1.333-1.333z"></path>
        <path stroke-linejoin="miter" stroke-linecap="round" stroke-miterlimit="4" stroke-width="1.3333" d="M13.333 9.333v-4"></path>
        <path stroke-linejoin="miter" stroke-linecap="round" stroke-miterlimit="4" stroke-width="1.3333" d="M18.667 9.333v-4"></path>
        <path stroke-linejoin="miter" stroke-linecap="round" stroke-miterlimit="4" stroke-width="1.3333" d="M22.667 13.333h4"></path>
        <path stroke-linejoin="miter" stroke-linecap="round" stroke-miterlimit="4" stroke-width="1.3333" d="M22.667 18.667h4"></path>
        <path stroke-linejoin="miter" stroke-linecap="round" stroke-miterlimit="4" stroke-width="1.3333" d="M13.333 26.667v-4"></path>
        <path stroke-linejoin="miter" stroke-linecap="round" stroke-miterlimit="4" stroke-width="1.3333" d="M18.667 26.667v-4"></path>
        <path stroke-linejoin="miter" stroke-linecap="round" stroke-miterlimit="4" stroke-width="1.3333" d="M5.333 13.333h4"></path>
        <path stroke-linejoin="miter" stroke-linecap="round" stroke-miterlimit="4" stroke-width="1.3333" d="M5.333 18.667h4"></path>
        </symbol>

        <symbol id="icon-Payment" viewBox="0 0 32 32">
        <path d="M16 0c8.837 0 16 7.163 16 16s-7.163 16-16 16c-8.837 0-16-7.163-16-16s7.163-16 16-16z"></path>
        <path d="M22.964 18.64c-0.234-0.184-2.301-2.461-3.472-3.522-0.005-0.005-0.005-0.005-0.005-0.010v-4.902c0-1.215-0.991-2.207-2.207-2.207h-7.228c-1.131 0-2.052 0.927-2.052 2.052v11.497c0 1.215 0.991 2.207 2.207 2.207h2.635c0.090 0 0.164-0.080 0.154-0.169l-0.115-0.976c-0.010-0.080-0.075-0.135-0.154-0.135h-0.314c-0.085 0-0.154-0.070-0.154-0.154v-13.061c0-0.085 0.070-0.154 0.154-0.154h4.882c0.493 0 0.897 0.403 0.897 0.897v11.721c0 0.339-0.234 0.628-0.548 0.717-0.005 0-0.005 0-0.010 0-0.533-0.289-1.161-1.524-1.255-1.719-0.010-0.015-0.015-0.035-0.015-0.050-0.035-0.314-0.389-3.353-2.007-3.353-0.045 0-0.090 0-0.134 0.005 0 0-1.295 0.11-0.224 3.801 0 0.010 0.005 0.015 0.005 0.025l0.473 4.090c0 0.005 0 0.010 0.005 0.020 0.040 0.154 0.578 2.242 1.968 3.721 0.025 0.030 0.040 0.065 0.040 0.105v0.354c0 0.010-0.005 0.015-0.015 0.015h-0.125c-0.304 0-0.553 0.249-0.553 0.553v1.44c0 0.304 0.249 0.553 0.553 0.553h5.863c0.304 0 0.553-0.249 0.553-0.553v-1.43c0-0.304-0.249-0.553-0.553-0.553-0.010 0-0.015-0.005-0.015-0.015 0.194-1.803 0.892-7.97 1.265-8.453 0.010-0.015 0.020-0.030 0.025-0.050 0.065-0.224 0.389-1.594-0.523-2.306zM10.306 22.331c0 0.080-0.065 0.14-0.139 0.14-0.488 0-0.887-0.399-0.887-0.887v-11.591c0-0.488 0.399-0.887 0.887-0.887 0.080 0 0.139 0.065 0.139 0.139v13.086z"></path>
        </symbol>

        <symbol id="icon-Phones" viewBox="0 0 32 32">
        <path d="M14.667 2.667c-0.736 0-1.333 0.597-1.333 1.333s0.597 1.333 1.333 1.333v-2.667zM17.792 5.333c0.736 0 1.333-0.597 1.333-1.333s-0.597-1.333-1.333-1.333v2.667zM17.333 25.146c0-0.736-0.597-1.333-1.333-1.333s-1.333 0.597-1.333 1.333h2.667zM14.667 25.16c0 0.736 0.597 1.333 1.333 1.333s1.333-0.597 1.333-1.333h-2.667zM9.75 4.833h12.5v-2.667h-12.5v2.667zM22.25 4.833c0.127 0 0.229 0.103 0.229 0.229h2.667c0-1.599-1.297-2.896-2.896-2.896v2.667zM22.479 5.063v21.875h2.667v-21.875h-2.667zM22.479 26.937c0 0.127-0.103 0.229-0.229 0.229v2.667c1.599 0 2.896-1.297 2.896-2.896h-2.667zM22.25 27.167h-12.5v2.667h12.5v-2.667zM9.75 27.167c-0.127 0-0.229-0.103-0.229-0.229h-2.667c0 1.599 1.297 2.896 2.896 2.896v-2.667zM9.521 26.937v-21.875h-2.667v21.875h2.667zM9.521 5.063c0-0.127 0.103-0.229 0.229-0.229v-2.667c-1.599 0-2.896 1.296-2.896 2.896h2.667zM14.667 5.333h3.125v-2.667h-3.125v2.667zM14.667 25.146v0.014h2.667v-0.014h-2.667zM8.667 23.333h14.667v-2.667h-14.667v2.667z"></path>
        </symbol>

        <symbol id="icon-Screen-size" viewBox="0 0 32 32">
        <path d="M8.81 4.334c1.124-1.124 2.933-1.124 6.55-1.124h1.279c3.618 0 5.426 0 6.55 1.124s1.124 2.933 1.124 6.55v10.232c0 3.618 0 5.426-1.124 6.55s-2.933 1.124-6.55 1.124h-1.279c-3.618 0-5.426 0-6.55-1.124s-1.124-2.933-1.124-6.55v-10.232c0-3.618 0-5.426 1.124-6.55zM19.197 8.048c0.552 0 1-0.448 1-1s-0.448-1-1-1h-6.395c-0.552 0-1 0.448-1 1s0.448 1 1 1h6.395zM15.999 24.954c1.060-0 1.919-0.859 1.919-1.919s-0.859-1.919-1.919-1.919c-1.060 0-1.919 0.859-1.919 1.919s0.859 1.919 1.919 1.919z"></path>
        </symbol>

        <symbol id="icon-Shipping" viewBox="0 0 32 32">
        <path d="M16 0c8.837 0 16 7.163 16 16s-7.163 16-16 16c-8.837 0-16-7.163-16-16s7.163-16 16-16z"></path>
        <path d="M15.037 22.15c-0.342-0.324-0.741-0.573-1.177-0.728l-0.914-3.557 10.88-3.044 1.165 4.542-9.955 2.787zM11.573 12.517l7.253-2.029 1.166 4.543-7.253 2.029-1.167-4.544zM11.899 21.354c-0.203 0.057-0.391 0.138-0.574 0.227l-3.198-12.461h-1.203c-0.121 0.263-0.373 0.448-0.672 0.448h-1.502c-0.415 0-0.751-0.352-0.751-0.784s0.336-0.784 0.751-0.784h1.502c0.252 0 0.463 0.138 0.6 0.335h2.31v0.038l0.034-0.011 3.308 12.887c-0.202 0.019-0.403 0.048-0.605 0.103zM12.093 22.111c1.402-0.392 2.842 0.476 3.218 1.941 0.376 1.463-0.456 2.968-1.858 3.36-1.402 0.391-2.843-0.478-3.218-1.941s0.457-2.968 1.858-3.36zM11.698 25.113c0.161 0.627 0.778 0.999 1.379 0.83s0.957-0.813 0.796-1.44c-0.161-0.627-0.778-0.999-1.379-0.832-0.601 0.169-0.958 0.814-0.796 1.441zM24.898 22.029l-8.763 2.451c-0.016-0.209-0.045-0.421-0.099-0.631s-0.131-0.409-0.217-0.599l8.717-2.437 0.361 1.217z"></path>
        </symbol>

        <symbol id="icon-shop-2-svgrepo-com-2" viewBox="0 0 32 32">
        <path d="M9.914 1.667h12.173c0.76-0 1.405-0 1.938 0.055 0.568 0.059 1.092 0.186 1.588 0.493s0.844 0.719 1.151 1.2c0.288 0.452 0.576 1.029 0.916 1.709l0.022 0.044c0.013 0.026 0.025 0.052 0.035 0.079l1.871 4.731c0.223 0.563 0.469 1.265 0.542 1.984 0.074 0.735-0.027 1.577-0.603 2.308-0.471 0.597-1.126 1.046-1.88 1.259v12.805h1.667c0.552 0 1 0.448 1 1s-0.448 1-1 1h-26.667c-0.552 0-1-0.448-1-1s0.448-1 1-1h1.667v-12.805c-0.754-0.213-1.409-0.662-1.88-1.259-0.576-0.73-0.677-1.572-0.603-2.308 0.072-0.719 0.319-1.421 0.542-1.984l1.871-4.731c0.011-0.027 0.022-0.053 0.035-0.079l0.022-0.044c0.34-0.68 0.628-1.257 0.916-1.709 0.306-0.482 0.655-0.894 1.151-1.2s1.020-0.434 1.588-0.493c0.533-0.055 1.179-0.055 1.938-0.055zM24 14.517c-0.669 0.708-1.616 1.15-2.667 1.15s-1.998-0.442-2.667-1.15c-0.669 0.708-1.616 1.15-2.667 1.15s-1.998-0.442-2.667-1.15c-0.669 0.708-1.616 1.15-2.667 1.15s-1.998-0.442-2.667-1.15c-0.448 0.474-1.021 0.829-1.667 1.012v12.805h5.333v-3.71c-0-0.586-0-1.092 0.038-1.507 0.040-0.439 0.128-0.874 0.364-1.283 0.263-0.456 0.642-0.835 1.098-1.098 0.41-0.236 0.844-0.325 1.283-0.364 0.415-0.038 0.921-0.038 1.507-0.038h0.086c0.586 0 1.092 0 1.507 0.038 0.439 0.040 0.873 0.128 1.283 0.364 0.456 0.263 0.835 0.642 1.098 1.098 0.236 0.41 0.325 0.844 0.364 1.283 0.038 0.415 0.038 0.921 0.038 1.507v3.71h5.333v-12.805c-0.646-0.183-1.219-0.538-1.667-1.012zM13.667 28.333h4.667v-3.667c0-0.641-0.001-1.056-0.029-1.37-0.027-0.3-0.073-0.409-0.105-0.464-0.088-0.152-0.214-0.278-0.366-0.366-0.055-0.031-0.163-0.077-0.464-0.105-0.314-0.029-0.728-0.029-1.37-0.029s-1.056 0.001-1.37 0.029c-0.3 0.027-0.409 0.073-0.464 0.105-0.152 0.088-0.278 0.214-0.366 0.366-0.031 0.055-0.077 0.163-0.105 0.464-0.029 0.314-0.029 0.728-0.029 1.37v3.667zM9 12c0 0.92 0.746 1.667 1.667 1.667s1.667-0.746 1.667-1.667c0-0.552 0.448-1 1-1s1 0.448 1 1c0 0.92 0.746 1.667 1.667 1.667s1.667-0.746 1.667-1.667c0-0.552 0.448-1 1-1s1 0.448 1 1c0 0.92 0.746 1.667 1.667 1.667s1.667-0.746 1.667-1.667c0-0.552 0.448-1 1-1s1 0.448 1 1c0 0.92 0.746 1.667 1.667 1.667 0.531 0 1.003-0.247 1.31-0.636 0.152-0.193 0.225-0.456 0.184-0.869-0.043-0.429-0.202-0.918-0.411-1.448l-1.855-4.69c-0.357-0.714-0.595-1.187-0.817-1.535-0.213-0.335-0.366-0.481-0.515-0.573s-0.347-0.164-0.742-0.204c-0.418-0.043-0.959-0.044-1.782-0.044h-12.074c-0.822 0-1.364 0.001-1.782 0.044-0.395 0.041-0.594 0.113-0.742 0.204s-0.302 0.237-0.515 0.573c-0.222 0.348-0.46 0.821-0.817 1.535l-1.855 4.69c-0.21 0.53-0.368 1.018-0.411 1.448-0.041 0.413 0.032 0.677 0.184 0.869 0.307 0.389 0.779 0.636 1.31 0.636 0.92 0 1.667-0.746 1.667-1.667 0-0.552 0.448-1 1-1s1 0.448 1 1z"></path>
        </symbol>

        <symbol id="icon-Smart-Watches" viewBox="0 0 32 32">
        <path stroke-linejoin="round" stroke-linecap="round" stroke-miterlimit="4" stroke-width="1.3333" d="M20 8h-8c-2.209 0-4 1.791-4 4v8c0 2.209 1.791 4 4 4h8c2.209 0 4-1.791 4-4v-8c0-2.209-1.791-4-4-4z"></path>
        <path stroke-linejoin="round" stroke-linecap="round" stroke-miterlimit="4" stroke-width="1.3333" d="M12 24v4h8v-4"></path>
        <path stroke-linejoin="round" stroke-linecap="round" stroke-miterlimit="4" stroke-width="1.3333" d="M12 8v-4h8v4"></path>
        <path stroke-linejoin="miter" stroke-linecap="round" stroke-miterlimit="4" stroke-width="1.3333" d="M13.81 12v7.333"></path>
        <path stroke-linejoin="miter" stroke-linecap="round" stroke-miterlimit="4" stroke-width="1.3333" d="M16.476 15.333v4"></path>
        <path stroke-linejoin="miter" stroke-linecap="round" stroke-miterlimit="4" stroke-width="1.3333" d="M19.143 14v5.333"></path>
        </symbol>

        <symbol id="icon-Tiktok" viewBox="0 0 32 32">
        <path d="M23.767 6.716c-1.319-1.533-2.010-3.514-1.955-5.531l-4.928-0.119c0 0 0 0.21 0 0.494v19.76c0.069 6.252-9.808 6.1-9.027-0.81 0.478-2.747 3.43-4.438 6.053-3.483v-5.028c-5.711-0.995-11.124 3.551-11.067 9.343 0.499 12.56 18.514 12.562 19.014 0-0.126-0.45-0.055-8.82-0.073-9.525 2.241 1.394 4.848 2.091 7.488 2.002v-5.193c-2.441 0-4.304-0.649-5.506-1.91z"></path>
        </symbol>

        <symbol id="icon-To-edit" viewBox="0 0 32 32">
        <path d="M22.725 14.459l2.299-2.299c0.698-0.698 1.047-1.047 1.233-1.423 0.355-0.716 0.355-1.557 0-2.273-0.186-0.376-0.536-0.725-1.233-1.423s-1.047-1.047-1.423-1.233c-0.716-0.355-1.557-0.355-2.273 0-0.376 0.187-0.725 0.535-1.423 1.233l-2.328 2.328c1.234 2.113 3.008 3.873 5.149 5.091zM15.714 11.23l-8.794 8.794c-0.544 0.544-0.816 0.816-0.995 1.15s-0.254 0.711-0.405 1.466l-0.788 3.939c-0.085 0.426-0.128 0.639-0.007 0.76s0.334 0.078 0.76-0.007l3.939-0.788c0.755-0.151 1.132-0.226 1.466-0.405s0.606-0.451 1.15-0.995l8.818-8.818c-2.076-1.3-3.832-3.044-5.144-5.096z"></path>
        </symbol>

        <symbol id="icon-Twitter" viewBox="0 0 32 32">
        <path d="M32 5.824c-1.176 0.535-2.442 0.898-3.77 1.059 1.356-0.832 2.397-2.151 2.887-3.723-1.27 0.77-2.673 1.331-4.172 1.631-1.195-1.308-2.902-2.124-4.791-2.124-3.623 0-6.563 3.014-6.563 6.732 0 0.528 0.056 1.040 0.169 1.533-5.456-0.281-10.293-2.958-13.533-7.036-0.565 0.998-0.888 2.155-0.888 3.388 0 2.334 1.159 4.395 2.921 5.603-1.074-0.033-2.089-0.339-2.975-0.84v0.083c0 3.263 2.263 5.984 5.269 6.601-0.55 0.158-1.131 0.237-1.73 0.237-0.423 0-0.836-0.040-1.236-0.119 0.836 2.673 3.259 4.621 6.133 4.673-2.246 1.807-5.079 2.883-8.154 2.883-0.53 0-1.054-0.031-1.566-0.092 2.906 1.907 6.358 3.022 10.064 3.022 12.077 0 18.679-10.256 18.679-19.153 0-0.293-0.006-0.586-0.017-0.873 1.283-0.95 2.397-2.134 3.274-3.484z"></path>
        </symbol>

        <symbol id="icon-User" viewBox="0 0 32 32">
        <path stroke-linejoin="round" stroke-linecap="round" stroke-miterlimit="4" stroke-width="1.5" d="M24 27v-2.667c0-1.415-0.478-2.771-1.328-3.771s-2.003-1.562-3.206-1.562h-7.933c-1.202 0-2.355 0.562-3.206 1.562s-1.328 2.357-1.328 3.771v2.667M21 9.5c0 2.485-2.015 4.5-4.5 4.5s-4.5-2.015-4.5-4.5c0-2.485 2.015-4.5 4.5-4.5s4.5 2.015 4.5 4.5z"></path>
        </symbol>

        <symbol id="icon-Search" viewBox="0 0 32 32">
        <path stroke-linejoin="miter" stroke-linecap="round" stroke-miterlimit="4" stroke-width="2.6667" d="M30.222 30.222l-6.716-6.728M27.228 14.503c0 3.375-1.341 6.612-3.727 8.998s-5.623 3.727-8.998 3.727c-3.375 0-6.612-1.341-8.998-3.727s-3.727-5.623-3.727-8.998c0-3.375 1.341-6.612 3.727-8.998s5.623-3.727 8.998-3.727c3.375 0 6.612 1.341 8.998 3.727s3.727 5.623 3.727 8.998v0z"></path>
        </symbol>

        <symbol id="icon-verify" viewBox="0 0 32 32">
        <path d="M14.387 20.227c-0.267 0-0.52-0.107-0.707-0.293l-3.227-3.227c-0.387-0.387-0.387-1.027 0-1.413s1.027-0.387 1.413 0l2.52 2.52 5.733-5.733c0.387-0.387 1.027-0.387 1.413 0s0.387 1.027 0 1.413l-6.44 6.44c-0.187 0.187-0.44 0.293-0.707 0.293z"></path>
        <path d="M16 30.333c-0.84 0-1.68-0.28-2.333-0.84l-2.107-1.813c-0.213-0.187-0.747-0.373-1.027-0.373h-2.293c-1.973 0-3.573-1.6-3.573-3.573v-2.28c0-0.28-0.187-0.8-0.373-1.013l-1.8-2.12c-1.093-1.293-1.093-3.333 0-4.627l1.8-2.12c0.187-0.213 0.373-0.733 0.373-1.013v-2.293c0-1.973 1.6-3.573 3.573-3.573h2.307c0.28 0 0.813-0.2 1.027-0.373l2.107-1.813c1.307-1.12 3.347-1.12 4.653 0l2.107 1.813c0.213 0.187 0.747 0.373 1.027 0.373h2.267c1.973 0 3.573 1.6 3.573 3.573v2.267c0 0.28 0.2 0.813 0.387 1.027l1.813 2.107c1.12 1.307 1.12 3.347 0 4.653l-1.813 2.107c-0.187 0.213-0.387 0.747-0.387 1.027v2.267c0 1.973-1.6 3.573-3.573 3.573h-2.267c-0.28 0-0.813 0.2-1.027 0.373l-2.107 1.813c-0.653 0.573-1.493 0.853-2.333 0.853zM8.24 6.693c-0.867 0-1.573 0.707-1.573 1.573v2.28c0 0.76-0.36 1.733-0.853 2.307l-1.8 2.12c-0.467 0.547-0.467 1.493 0 2.040l1.8 2.12c0.493 0.587 0.853 1.547 0.853 2.307v2.28c0 0.867 0.707 1.573 1.573 1.573h2.307c0.773 0 1.747 0.36 2.333 0.867l2.107 1.813c0.547 0.467 1.507 0.467 2.053 0l2.107-1.813c0.587-0.493 1.56-0.867 2.333-0.867h2.267c0.867 0 1.573-0.707 1.573-1.573v-2.267c0-0.773 0.36-1.747 0.867-2.333l1.813-2.107c0.467-0.547 0.467-1.507 0-2.053l-1.813-2.107c-0.507-0.587-0.867-1.56-0.867-2.333v-2.253c0-0.867-0.707-1.573-1.573-1.573h-2.267c-0.773 0-1.747-0.36-2.333-0.867l-2.107-1.813c-0.547-0.467-1.507-0.467-2.053 0l-2.107 1.827c-0.587 0.493-1.573 0.853-2.333 0.853h-2.307z"></path>
        </symbol>

        <symbol id="icon-View" viewBox="0 0 32 32">
        <path stroke-linejoin="miter" stroke-linecap="butt" stroke-miterlimit="4" stroke-width="1.3333" d="M20.667 16c0 2.577-2.089 4.667-4.667 4.667s-4.667-2.089-4.667-4.667c0-2.577 2.089-4.667 4.667-4.667s4.667 2.089 4.667 4.667z"></path>
        <path stroke-linejoin="miter" stroke-linecap="butt" stroke-miterlimit="4" stroke-width="1.3333" d="M26.917 14.579c0.518 0.628 0.776 0.943 0.776 1.421s-0.259 0.793-0.776 1.421c-1.893 2.299-6.070 6.579-10.917 6.579s-9.024-4.28-10.917-6.579c-0.518-0.628-0.776-0.943-0.776-1.421s0.259-0.793 0.776-1.421c1.893-2.299 6.070-6.579 10.917-6.579s9.024 4.28 10.917 6.579z"></path>
        </symbol>

        <symbol id="icon-Arrow1" viewBox="0 0 32 32">
        <path d="M21.333 27.667c-0.265 0.001-0.52-0.105-0.707-0.293l-10.667-10.667c-0.39-0.39-0.39-1.023 0-1.413l10.667-10.667c0.394-0.367 1.008-0.356 1.389 0.024s0.392 0.995 0.024 1.389l-9.96 9.96 9.96 9.96c0.39 0.39 0.39 1.023 0 1.413-0.186 0.189-0.441 0.295-0.707 0.293z"></path>
        </symbol>

        <symbol id="icon-Battery-capacity" viewBox="0 0 32 32">
        <path d="M12.563 1c-0.937 0-1.25 0.211-1.25 1.25v0.937h-2.813c-1.847 0-2.187 0.341-2.187 2.187v23.438c0 1.847 0.341 2.187 2.187 2.187h15c1.847 0 2.187-0.341 2.187-2.187v-23.438c0-1.847-0.341-2.187-2.187-2.187h-2.813v-0.937c0-1.038-0.312-1.25-1.25-1.25h-6.874zM8.5 7.563c0-2.5-0.312-2.187 2.187-2.187 1.25 0 9.688 0 10.625 0 2.5 0 2.187-0.312 2.187 2.187 0 1.25 0 17.813 0 19.063 0 2.5 0.312 2.187-2.187 2.187-1.25 0-9.375 0-10.625 0-2.5 0-2.187 0.312-2.187-2.187 0-1.251 0-17.813 0-19.063zM10.062 11.938h11.875c0.345 0 0.625 0.28 0.625 0.625v3.438c0 0.345-0.28 0.625-0.625 0.625h-11.875c-0.345 0-0.625-0.28-0.625-0.625v-3.438c0-0.345 0.28-0.625 0.625-0.625zM10.062 17.563h11.875c0.345 0 0.625 0.28 0.625 0.625v3.438c0 0.345-0.28 0.625-0.625 0.625h-11.875c-0.345 0-0.625-0.28-0.625-0.625v-3.438c0-0.345 0.28-0.625 0.625-0.625zM10.062 23.188h11.875c0.345 0 0.625 0.28 0.625 0.625v3.438c0 0.345-0.28 0.625-0.625 0.625h-11.875c-0.345 0-0.625-0.28-0.625-0.625v-3.438c0-0.345 0.28-0.625 0.625-0.625z"></path>
        </symbol>

        <symbol id="icon-Burger" viewBox="0 0 32 32">
        <path d="M26 11h-20v-2h20v2z"></path>
        <path d="M26 17h-20v-2h20v2z"></path>
        <path d="M26 23h-20v-2h20v2z"></path>
        </symbol>

        <symbol id="icon-Cameras" viewBox="0 0 32 32">
        <path stroke-linejoin="round" stroke-linecap="round" stroke-miterlimit="4" stroke-width="1.3333" d="M6.667 9.333h1.333c0.707 0 1.386-0.281 1.886-0.781s0.781-1.178 0.781-1.886c0-0.354 0.14-0.693 0.391-0.943s0.589-0.391 0.943-0.391h8c0.354 0 0.693 0.14 0.943 0.391s0.391 0.589 0.391 0.943c0 0.707 0.281 1.386 0.781 1.886s1.178 0.781 1.886 0.781h1.333c0.707 0 1.386 0.281 1.886 0.781s0.781 1.178 0.781 1.886v12c0 0.707-0.281 1.386-0.781 1.886s-1.178 0.781-1.886 0.781h-18.667c-0.707 0-1.386-0.281-1.886-0.781s-0.781-1.178-0.781-1.886v-12c0-0.707 0.281-1.386 0.781-1.886s1.178-0.781 1.886-0.781"></path>
        <path stroke-linejoin="round" stroke-linecap="round" stroke-miterlimit="4" stroke-width="1.3333" d="M16 21.333c2.209 0 4-1.791 4-4s-1.791-4-4-4c-2.209 0-4 1.791-4 4s1.791 4 4 4z"></path>
        </symbol>

        <symbol id="icon-Cart" viewBox="0 0 32 32">
        <path stroke-linejoin="round" stroke-linecap="round" stroke-miterlimit="4" stroke-width="1.5" d="M3 5h4l3 17h16M10 16.667h15.59c0.116 0 0.228-0.040 0.317-0.113s0.151-0.175 0.173-0.289l1.8-9c0.015-0.073 0.013-0.147-0.005-0.219s-0.052-0.139-0.099-0.196c-0.047-0.057-0.106-0.103-0.173-0.135s-0.14-0.048-0.214-0.048h-19.39M12 26c0 0.552-0.448 1-1 1s-1-0.448-1-1c0-0.552 0.448-1 1-1s1 0.448 1 1zM26 26c0 0.552-0.448 1-1 1s-1-0.448-1-1c0-0.552 0.448-1 1-1s1 0.448 1 1z"></path>
        </symbol>

        <symbol id="icon-Close" viewBox="0 0 33 32">
        <path stroke-linejoin="round" stroke-linecap="round" stroke-miterlimit="4" stroke-width="1.3333" d="M24.733 8l-16 16"></path>
        <path stroke-linejoin="round" stroke-linecap="round" stroke-miterlimit="4" stroke-width="1.3333" d="M8.733 8l16 16"></path>
        </symbol>

        <symbol id="icon-Computers" viewBox="0 0 32 32">
        <path stroke-linejoin="round" stroke-linecap="round" stroke-miterlimit="4" stroke-width="1.3333" d="M26.667 5.333h-21.333c-0.736 0-1.333 0.597-1.333 1.333v13.333c0 0.736 0.597 1.333 1.333 1.333h21.333c0.736 0 1.333-0.597 1.333-1.333v-13.333c0-0.736-0.597-1.333-1.333-1.333z"></path>
        <path stroke-linejoin="round" stroke-linecap="round" stroke-miterlimit="4" stroke-width="1.3333" d="M9.333 26.667h13.333"></path>
        <path stroke-linejoin="round" stroke-linecap="round" stroke-miterlimit="4" stroke-width="1.3333" d="M12 21.333v5.333"></path>
        <path stroke-linejoin="round" stroke-linecap="round" stroke-miterlimit="4" stroke-width="1.3333" d="M20 21.333v5.333"></path>
        <path stroke-linejoin="miter" stroke-linecap="round" stroke-miterlimit="4" stroke-width="1.3333" d="M4.571 18.286h22.857"></path>
        </symbol>

        <symbol id="icon-delivery-truck-svgrepo-com-1-1" viewBox="0 0 32 32">
        <path d="M28.627 14.913l-1.373-1.907c-0.307-0.432-0.713-0.784-1.184-1.027s-0.993-0.371-1.523-0.373h-5.84v-2.853c0-0.884-0.351-1.732-0.976-2.357s-1.473-0.976-2.357-0.976h-9.293c-0.883 0.002-1.73 0.354-2.354 0.979s-0.977 1.471-0.979 2.354v13.253c0 0.53 0.211 1.039 0.586 1.414s0.884 0.586 1.414 0.586h1.627c0.101 0.713 0.456 1.366 0.999 1.839s1.24 0.733 1.961 0.733 1.417-0.26 1.961-0.733c0.544-0.473 0.899-1.126 0.999-1.839h7.413c0.101 0.713 0.456 1.366 0.999 1.839s1.24 0.733 1.961 0.733 1.417-0.26 1.961-0.733c0.544-0.473 0.899-1.126 0.999-1.839h1.627c0.53 0 1.039-0.211 1.414-0.586s0.586-0.884 0.586-1.414v-5.16c-0.003-0.694-0.222-1.369-0.627-1.933zM9.333 25.247c-0.33 0-0.652-0.098-0.926-0.281s-0.488-0.443-0.614-0.748c-0.126-0.305-0.159-0.64-0.095-0.963s0.223-0.62 0.456-0.853 0.53-0.392 0.853-0.456c0.323-0.064 0.658-0.031 0.963 0.095s0.565 0.34 0.748 0.614c0.183 0.274 0.281 0.596 0.281 0.926 0 0.442-0.176 0.866-0.488 1.179s-0.736 0.488-1.178 0.488zM17.373 22.673h-5.173c-0.194-0.608-0.576-1.138-1.092-1.515s-1.137-0.579-1.775-0.579-1.26 0.203-1.775 0.579c-0.515 0.376-0.898 0.907-1.092 1.515h-1.72c-0.177 0-0.346-0.070-0.471-0.195s-0.195-0.295-0.195-0.471v-13.253c0-0.53 0.211-1.039 0.586-1.414s0.884-0.586 1.414-0.586h9.293c0.53 0 1.039 0.211 1.414 0.586s0.586 0.884 0.586 1.414v13.92zM22.667 25.247c-0.33 0-0.652-0.098-0.926-0.281s-0.488-0.443-0.614-0.748c-0.126-0.305-0.159-0.64-0.095-0.963s0.223-0.62 0.456-0.853 0.53-0.392 0.853-0.456c0.323-0.064 0.658-0.031 0.963 0.095s0.565 0.34 0.748 0.614c0.183 0.274 0.281 0.596 0.281 0.926 0 0.442-0.176 0.866-0.488 1.179s-0.737 0.488-1.179 0.488zM27.92 22.007c0 0.177-0.070 0.346-0.195 0.471s-0.295 0.195-0.471 0.195h-1.72c-0.194-0.608-0.576-1.138-1.092-1.515s-1.137-0.579-1.775-0.579-1.26 0.203-1.775 0.579c-0.515 0.376-0.898 0.907-1.092 1.515h-1.093v-9.733h5.84c0.318 0.002 0.631 0.079 0.914 0.225s0.527 0.357 0.713 0.615l1.373 1.907c0.24 0.339 0.37 0.744 0.373 1.16v5.16z"></path>
        <path d="M24.039 16.273h-2.667c-0.177 0-0.346-0.070-0.471-0.195s-0.195-0.295-0.195-0.471 0.070-0.346 0.195-0.471c0.125-0.125 0.295-0.195 0.471-0.195h2.667c0.177 0 0.346 0.070 0.471 0.195s0.195 0.295 0.195 0.471-0.070 0.346-0.195 0.471c-0.125 0.125-0.295 0.195-0.471 0.195z"></path>
        </symbol>

        <symbol id="icon-Edit" viewBox="0 0 32 32">
        <path stroke-linejoin="miter" stroke-linecap="round" stroke-miterlimit="4" stroke-width="1.6" d="M16 10.667v10.667"></path>
        <path stroke-linejoin="miter" stroke-linecap="round" stroke-miterlimit="4" stroke-width="1.6" d="M21.333 16h-10.667"></path>
        </symbol>

        <symbol id="icon-Expand_down_light" viewBox="0 0 32 32">
        <path stroke-linejoin="miter" stroke-linecap="round" stroke-miterlimit="4" stroke-width="2" d="M24 12l-8 8-8-8"></path>
        </symbol>

        <symbol id="icon-Facebook" viewBox="0 0 32 32">
        <path d="M17.695 7.636c0 0.327 0 1.395 0 2.911h5.214l-0.565 4.648h-4.649c0 7.168 0 16.773 0 16.773h-6.17c0 0 0-9.478 0-16.773h-3.215v-4.648h3.215c0-1.843 0-3.154 0-3.519 0-1.739-0.131-2.564 0.608-3.911s2.824-3.128 6.43-3.085c3.607 0.044 5.127 0.391 5.127 0.391l-0.781 4.954c0 0-2.303-0.608-3.434-0.391-1.129 0.217-1.78 0.912-1.78 2.65z"></path>
        </symbol>

        <symbol id="icon-Favorite_duotone" viewBox="0 0 32 32">
        <path stroke-linejoin="miter" stroke-linecap="butt" stroke-miterlimit="4" stroke-width="1.4" d="M5.934 18.544l9.381 8.813c0.325 0.305 0.487 0.457 0.685 0.457s0.36-0.152 0.685-0.457l9.381-8.813c2.608-2.45 2.925-6.482 0.731-9.31l-0.413-0.532c-2.624-3.382-7.892-2.815-9.736 1.048-0.261 0.546-1.037 0.546-1.298 0-1.844-3.864-7.111-4.431-9.736-1.048l-0.412 0.532c-2.194 2.827-1.877 6.859 0.731 9.31z"></path>
        </symbol>

        <symbol id="icon-Favorites" viewBox="0 0 32 32">
        <path stroke-linejoin="round" stroke-linecap="round" stroke-miterlimit="4" stroke-width="1.5" d="M11 7c-2.761 0-5 2.216-5 4.95 0 2.207 0.875 7.445 9.488 12.74 0.154 0.094 0.331 0.143 0.512 0.143s0.358-0.050 0.512-0.143c8.613-5.295 9.488-10.533 9.488-12.74 0-2.734-2.239-4.95-5-4.95s-5 3-5 3c0 0-2.239-3-5-3z"></path>
        </symbol>

        <symbol id="icon-Filters" viewBox="0 0 32 32">
        <path stroke-linejoin="miter" stroke-linecap="round" stroke-miterlimit="4" stroke-width="1.3333" d="M5.333 6.667h8M13.333 6.667c0 1.473 1.194 2.667 2.667 2.667s2.667-1.194 2.667-2.667M13.333 6.667c0-1.473 1.194-2.667 2.667-2.667s2.667 1.194 2.667 2.667M18.667 6.667h8M5.333 16h16M21.333 16c0 1.473 1.194 2.667 2.667 2.667s2.667-1.194 2.667-2.667c0-1.473-1.194-2.667-2.667-2.667s-2.667 1.194-2.667 2.667zM10.667 25.333h16M10.667 25.333c0-1.473-1.194-2.667-2.667-2.667s-2.667 1.194-2.667 2.667c0 1.473 1.194 2.667 2.667 2.667s2.667-1.194 2.667-2.667z"></path>
        </symbol>

        <symbol id="icon-Front-camera" viewBox="0 0 32 32">
        <path d="M18.963 28h-5.926c-4.161 0-6.242 0-7.737-0.981-0.647-0.425-1.203-0.97-1.635-1.605-0.999-1.467-0.999-3.51-0.999-7.596s0-6.129 0.999-7.596c0.432-0.635 0.988-1.181 1.635-1.605 0.96-0.63 2.163-0.855 4.004-0.936 0.878 0 1.635-0.654 1.807-1.499 0.258-1.269 1.393-2.182 2.711-2.182h4.357c1.318 0 2.452 0.913 2.711 2.182 0.172 0.846 0.929 1.499 1.807 1.499 1.841 0.080 3.043 0.306 4.004 0.936 0.647 0.424 1.203 0.97 1.635 1.605 0.999 1.467 0.999 3.51 0.999 7.596s0 6.129-0.999 7.596c-0.432 0.635-0.988 1.181-1.635 1.605-1.495 0.981-3.575 0.981-7.737 0.981zM20.36 12.799c0-0.552-0.448-1-1-1s-1 0.448-1 1v0.191c-1.96-0.993-4.415-0.67-6.054 0.968-2.040 2.040-2.040 5.347 0 7.387s5.347 2.040 7.387 0c0.868-0.868 1.368-1.968 1.496-3.101 0.062-0.549-0.332-1.044-0.881-1.107s-1.044 0.332-1.107 0.881c-0.080 0.699-0.387 1.376-0.923 1.912-1.259 1.259-3.3 1.259-4.559 0s-1.259-3.3 0-4.559c0.864-0.864 2.095-1.135 3.19-0.813-0.412 0.192-0.653 0.648-0.556 1.113 0.114 0.54 0.644 0.886 1.185 0.772l2.026-0.427c0.463-0.097 0.794-0.506 0.794-0.979v-2.24z"></path>
        </symbol>

        <symbol id="icon-Gaming" viewBox="0 0 32 32">
        <path stroke-linejoin="round" stroke-linecap="round" stroke-miterlimit="4" stroke-width="1.3333" d="M26.667 8h-21.333c-1.473 0-2.667 1.194-2.667 2.667v10.667c0 1.473 1.194 2.667 2.667 2.667h21.333c1.473 0 2.667-1.194 2.667-2.667v-10.667c0-1.473-1.194-2.667-2.667-2.667z"></path>
        <path stroke-linejoin="round" stroke-linecap="round" stroke-miterlimit="4" stroke-width="1.3333" d="M8 16h5.333M10.667 13.333v5.333"></path>
        <path stroke-linejoin="round" stroke-linecap="round" stroke-miterlimit="4" stroke-width="2" d="M20 14.667v0.014"></path>
        <path stroke-linejoin="round" stroke-linecap="round" stroke-miterlimit="4" stroke-width="2" d="M24 17.333v0.014"></path>
        </symbol>

        <symbol id="icon-Headphones" viewBox="0 0 32 32">
        <path stroke-linejoin="round" stroke-linecap="round" stroke-miterlimit="4" stroke-width="1.3333" d="M9.333 17.333h-1.333c-1.473 0-2.667 1.194-2.667 2.667v4c0 1.473 1.194 2.667 2.667 2.667h1.333c1.473 0 2.667-1.194 2.667-2.667v-4c0-1.473-1.194-2.667-2.667-2.667z"></path>
        <path stroke-linejoin="round" stroke-linecap="round" stroke-miterlimit="4" stroke-width="1.3333" d="M24 17.333h-1.333c-1.473 0-2.667 1.194-2.667 2.667v4c0 1.473 1.194 2.667 2.667 2.667h1.333c1.473 0 2.667-1.194 2.667-2.667v-4c0-1.473-1.194-2.667-2.667-2.667z"></path>
        <path stroke-linejoin="round" stroke-linecap="round" stroke-miterlimit="4" stroke-width="1.3333" d="M5.333 20v-4c0-2.829 1.124-5.542 3.124-7.542s4.713-3.124 7.542-3.124c2.829 0 5.542 1.124 7.542 3.124s3.124 4.713 3.124 7.542v4"></path>
        </symbol>

        <symbol id="icon-Instagram" viewBox="0 0 32 32">
        <path stroke-linejoin="miter" stroke-linecap="butt" stroke-miterlimit="4" stroke-width="4" d="M16 29.333c-2.859 0-4.916-0.001-6.52-0.157-1.586-0.154-2.6-0.449-3.409-0.958-0.925-0.581-1.708-1.363-2.289-2.289-0.508-0.81-0.804-1.824-0.958-3.41-0.156-1.604-0.157-3.661-0.157-6.52s0.001-4.916 0.157-6.52c0.154-1.586 0.449-2.6 0.958-3.409 0.581-0.925 1.364-1.708 2.289-2.289 0.809-0.508 1.824-0.804 3.409-0.958 1.604-0.156 3.661-0.157 6.52-0.157s4.916 0.001 6.52 0.157c1.586 0.154 2.6 0.449 3.41 0.958 0.925 0.581 1.707 1.364 2.289 2.289 0.509 0.809 0.804 1.824 0.958 3.409 0.156 1.604 0.157 3.661 0.157 6.52s-0.001 4.916-0.157 6.52c-0.154 1.586-0.449 2.6-0.958 3.41-0.581 0.925-1.364 1.707-2.289 2.289-0.81 0.509-1.824 0.804-3.41 0.958-1.604 0.156-3.661 0.157-6.52 0.157z"></path>
        <path stroke-linejoin="miter" stroke-linecap="butt" stroke-miterlimit="4" stroke-width="4" d="M16 22.667c2.946 0 5.333-2.388 5.333-5.333s-2.388-5.333-5.333-5.333-5.333 2.388-5.333 5.333c0 2.945 2.388 5.333 5.333 5.333z"></path>
        <path d="M22.5 11c0.828 0 1.5-0.672 1.5-1.5s-0.672-1.5-1.5-1.5c-0.828 0-1.5 0.672-1.5 1.5s0.672 1.5 1.5 1.5z"></path>
        </symbol>

        <symbol id="icon-Location" viewBox="0 0 33 32">
        <path d="M16.733 0c8.837 0 16 7.163 16 16s-7.163 16-16 16c-8.837 0-16-7.163-16-16s7.163-16 16-16z"></path>
        <path d="M16.327 6c-1 0-1.991 0.198-2.914 0.583s-1.762 0.947-2.468 1.656c-0.706 0.709-1.264 1.551-1.644 2.476s-0.572 1.917-0.568 2.917c0 5.274 5.44 10.109 7.114 11.389 0.14 0.116 0.317 0.179 0.499 0.179s0.359-0.063 0.499-0.179c1.677-1.318 7.072-6.115 7.072-11.389 0.005-1-0.188-1.991-0.568-2.916s-0.938-1.767-1.643-2.476c-0.705-0.709-1.543-1.272-2.467-1.656s-1.913-0.583-2.913-0.583zM16.327 16.787c-0.633 0-1.252-0.188-1.778-0.539s-0.936-0.851-1.179-1.436c-0.242-0.585-0.306-1.228-0.182-1.849s0.428-1.191 0.876-1.638c0.448-0.448 1.018-0.752 1.638-0.876s1.264-0.060 1.849 0.182 1.085 0.652 1.436 1.179c0.352 0.526 0.539 1.145 0.539 1.778 0 0.849-0.337 1.663-0.937 2.263s-1.414 0.937-2.263 0.937z"></path>
        </symbol>

       <symbol id="icon-Logo" viewBox="0 0 88 32">
        <path d="M18.91 22.192c-1.408 1.696-8.222 1.893-10.782 1.893-5.056 0-8.128-3.264-8.128-8 0-4.704 3.104-7.968 8.128-7.968 2.432 0 9.438 1.595 10.846 3.291l-7.198 1.989c-1.024-1.12-2.144-1.568-3.648-1.568-2.144 0-4 1.728-4 4.256 0 2.752 1.728 4.288 4 4.288 1.344 0 2.88-0.512 3.712-1.568l7.070 3.387z"></path>
        <path d="M38.405 9.168l-9.312 22.080h-4.576l2.976-6.88-6.432-15.2h4.544l3.2 8.128 0.928 2.912 0.896-2.912 3.2-8.128h4.576z"></path>
        <path d="M48.866 12.56c-2.304 0-3.968 1.76-3.968 4.16 0 2.368 1.664 4.128 3.968 4.128 2.24 0 3.776-1.664 3.776-4.128 0-2.496-1.536-4.16-3.776-4.16zM40.898 24.208v-23.456h4.064v8.352l-0.064 1.088c0.672-0.896 2.72-1.408 4.128-1.408 5.024 0 7.84 3.68 7.84 7.936 0 4.8-2.88 7.904-7.84 7.904-1.216 0-3.168-0.576-3.968-1.536l0.032 0.864v0.256h-4.192z"></path>
        <path d="M73.784 22.288c-1.184 1.536-3.904 2.464-6.24 2.464-5.088 0-7.936-3.488-7.936-8 0-4.608 2.816-7.968 7.776-7.968 4.928 0 7.744 3.36 7.744 7.968 0 0.512 0 0.832-0.032 1.28h-11.328c0.224 1.888 1.632 3.072 3.776 3.072 1.536 0 2.976-0.512 3.872-1.504l2.368 2.688zM63.832 15.28h7.040c-0.192-1.696-1.6-2.848-3.488-2.848s-3.392 1.152-3.552 2.848z"></path>
        <path d="M86.335 12.944c-0.832-0.288-1.568-0.384-2.432-0.384-0.576 0-1.056 0.032-1.504 0.224v11.424h-4.128v-14.368c1.248-0.64 3.392-1.088 5.472-1.088 0.896 0 2.496 0.096 3.456 0.448l-0.864 3.744z"></path>
       </symbol>
        
        <symbol id="icon-Main-camera" viewBox="0 0 32 32">
        <path d="M13.037 28h5.926c4.161 0 6.242 0 7.737-0.981 0.647-0.425 1.203-0.97 1.635-1.605 0.999-1.467 0.999-3.51 0.999-7.596s0-6.129-0.999-7.596c-0.432-0.635-0.988-1.181-1.635-1.605-0.961-0.63-2.163-0.855-4.004-0.936-0.879 0-1.635-0.654-1.807-1.499-0.259-1.269-1.393-2.182-2.711-2.182h-4.357c-1.318 0-2.452 0.913-2.711 2.182-0.172 0.846-0.929 1.499-1.807 1.499-1.841 0.080-3.043 0.306-4.004 0.936-0.647 0.424-1.203 0.97-1.635 1.605-0.999 1.467-0.999 3.51-0.999 7.596s0 6.129 0.999 7.596c0.432 0.635 0.988 1.181 1.635 1.605 1.495 0.981 3.575 0.981 7.737 0.981zM16 12.364c-3.068 0-5.556 2.442-5.556 5.455s2.487 5.455 5.556 5.455 5.556-2.442 5.556-5.455c0-3.012-2.487-5.454-5.556-5.454zM16 14.545c-1.841 0-3.333 1.465-3.333 3.273s1.492 3.273 3.333 3.273c1.841 0 3.333-1.465 3.333-3.273s-1.492-3.273-3.333-3.273zM22.296 13.455c0-0.602 0.497-1.091 1.111-1.091h1.481c0.614 0 1.111 0.488 1.111 1.091s-0.497 1.091-1.111 1.091h-1.481c-0.614 0-1.111-0.488-1.111-1.091z"></path>
        </symbol>
    </defs>
</svg>
